<?xml version="1.0" encoding="UTF-8"?>
<svg id="_Слой_1" data-name="Слой 1" xmlns="http://www.w3.org/2000/svg" viewBox="0 0 448.27 517.38">
  <path d="m63.48,516.88c-34.73,0-62.98-28.25-62.98-62.96V63.46C.5,28.74,28.75.5,63.48.5c11.32,0,22.56,3.19,32.5,9.23l321.56,195.23c18.93,11.5,30.24,31.58,30.24,53.73s-11.3,42.24-30.24,53.73L95.98,507.65c-9.94,6.04-21.18,9.23-32.49,9.23h0Z" fill="#ca4ffc"/>
  <path d="m63.48,1c11.23,0,22.37,3.17,32.24,9.15l321.56,195.23c18.78,11.4,30,31.33,30,53.3s-11.21,41.9-30,53.3L95.72,507.22c-9.86,5.99-21.01,9.15-32.24,9.15-15.95,0-31.78-6.4-43.44-17.55-12.28-11.75-19.04-27.7-19.04-44.91V63.46c0-17.22,6.76-33.17,19.04-44.91C31.7,7.4,47.53,1,63.48,1m0-1C30.44,0,0,26.37,0,63.46v390.46c0,37.08,30.44,63.46,63.48,63.46,10.97,0,22.23-2.91,32.76-9.3l321.56-195.23c40.64-24.67,40.64-83.65,0-108.32L96.24,9.3C85.72,2.91,74.46,0,63.48,0h0Z"/>
</svg>